<svg xmlns:xlink="http://www.w3.org/1999/xlink" xmlns="http://www.w3.org/2000/svg" width="24" height="24" fill="none" class="MuiSvgIcon-root MuiSvgIcon-fontSizeSmall mui-178rcu0" focusable="false" aria-hidden="true" viewBox="0 0 24 24"><path fill="#F7F7F7" d="M12.745 22c-.163 0-.326 0-.49-.01-5.368-.232-9.854-4.427-10.228-9.543-.326-4.39 2.291-8.492 6.51-10.213 1.198-.483 1.83-.111 2.099.159.268.26.642.865.144 1.971a7.4 7.4 0 0 0-.652 3.116c.019 4.121 3.547 7.618 7.85 7.786a8.5 8.5 0 0 0 1.832-.121c1.265-.223 1.792.27 1.994.586.2.316.431.995-.336 2C19.436 20.428 16.205 22 12.745 22m-9.29-9.655c.327 4.428 4.219 8.055 8.858 8.25 3.154.15 6.145-1.246 7.986-3.683.143-.195.21-.335.24-.41a1.6 1.6 0 0 0-.48.029c-.7.12-1.428.167-2.147.14-5.062-.196-9.203-4.317-9.232-9.172 0-1.284.259-2.52.786-3.683.096-.205.115-.344.125-.419-.086 0-.24.019-.49.121C5.45 5.006 3.188 8.56 3.457 12.345"></path></svg>