<svg xmlns:xlink="http://www.w3.org/1999/xlink" xmlns="http://www.w3.org/2000/svg" width="24" height="24" fill="none" class="MuiSvgIcon-root MuiSvgIcon-fontSizeMedium mui-8il4rh" focusable="false" aria-hidden="true" viewBox="0 0 24 24"><g fill="#4C9AFF" opacity="0.5"><path d="M18.998 8.5a3.5 3.5 0 1 1-7 0 3.5 3.5 0 0 1 7 0M1.248 2.425c0-.647.528-1.175 1.175-1.175h1.74c1.055 0 1.559 1.27.836 2.005l-.003.003-1.74 1.74c-.742.742-2.008.211-2.008-.833zM22.998 21.169c0 .647-.528 1.175-1.175 1.175h-1.74c-1.054 0-1.559-1.27-.836-2.005l.003-.003 1.74-1.74c.742-.742 2.008-.211 2.008.833z" fill="#4C9AFF"></path></g><path fill="#000000" fill-rule="evenodd" d="M1.248 3c0-.964.786-1.75 1.75-1.75h2.59c1.57 0 2.32 1.892 1.245 2.986l-.005.004-2.59 2.59c-1.105 1.105-2.99.315-2.99-1.24zm1.75-.25a.253.253 0 0 0-.25.25v2.59c0 .225.275.335.43.18l2.587-2.588a.245.245 0 0 0 .05-.278.23.23 0 0 0-.227-.154zM9.75 8.357a7.27 7.27 0 0 1 5.89 5.891 5.75 5.75 0 1 0-5.89-5.89m4.48 6.675A5.76 5.76 0 0 0 8.498 9.75a5.75 5.75 0 1 0 5.732 5.282M8.252 8.254a7.25 7.25 0 1 0 7.492 7.492 7.25 7.25 0 1 0-7.492-7.492m.246 3.996a.75.75 0 0 1 .66.392l.773 1.425 1.425.774a.75.75 0 0 1 0 1.318l-1.425.774-.774 1.425a.75.75 0 0 1-1.318 0l-.774-1.425-1.425-.774a.75.75 0 0 1 0-1.318l1.425-.774.774-1.425a.75.75 0 0 1 .659-.392m0 2.321-.22.407a.75.75 0 0 1-.302.3l-.407.222.407.22a.75.75 0 0 1 .301.302l.221.407.221-.407a.75.75 0 0 1 .301-.301l.407-.221-.407-.221a.75.75 0 0 1-.301-.301zm11.26 2.598c1.105-1.104 2.99-.314 2.99 1.24V21c0 .965-.786 1.75-1.75 1.75h-2.59c-1.57 0-2.32-1.892-1.245-2.985l.005-.005zm1.49 1.24a.253.253 0 0 0-.43-.179l-2.585 2.586-.002.001a.245.245 0 0 0-.05.278c.04.099.117.155.227.155h2.59c.136 0 .25-.114.25-.25z" clip-rule="evenodd" fill-opacity="0.6"></path></svg>