<svg xmlns:xlink="http://www.w3.org/1999/xlink" xmlns="http://www.w3.org/2000/svg" width="24" height="24" fill="none" class="MuiSvgIcon-root MuiSvgIcon-fontSizeMedium mui-lnffrt" focusable="false" aria-hidden="true" viewBox="0 0 24 24"><path fill="#000000" d="M19.75 7v4.738a6.5 6.5 0 0 0-1.5-.233V7c0-3.57-.67-4.25-4.25-4.25h-4c-3.58 0-4.25.68-4.25 4.25v10c0 3.57.67 4.25 4.25 4.25h2.37a6.5 6.5 0 0 0 1.193 1.5H10c-4.41 0-5.75-1.34-5.75-5.75V7c0-4.41 1.34-5.75 5.75-5.75h4c4.41 0 5.75 1.34 5.75 5.75" fill-opacity="0.6"></path><path fill="#000000" d="M14 6.25h-4c-.41 0-.75-.34-.75-.75s.34-.75.75-.75h4c.41 0 .75.34.75.75s-.34.75-.75.75" fill-opacity="0.6"></path><path fill="#000000" fill-rule="evenodd" d="M13 18a5 5 0 1 1 10 0 5 5 0 0 1-10 0m5-2.5a.5.5 0 0 1 .5.5v2.793l.646-.647a.5.5 0 0 1 .708.708l-1.5 1.5a.5.5 0 0 1-.708 0l-1.5-1.5a.5.5 0 0 1 .708-.708l.646.647V16a.5.5 0 0 1 .5-.5" clip-rule="evenodd" fill-opacity="0.6"></path></svg>