<svg xmlns:xlink="http://www.w3.org/1999/xlink" xmlns="http://www.w3.org/2000/svg" width="24" height="24" fill="none" class="MuiSvgIcon-root MuiSvgIcon-fontSizeSmall mui-1i5qi3f" focusable="false" aria-hidden="true" viewBox="0 0 24 24"><path fill="#252525" d="M12.02 19.283a7.27 7.27 0 0 1-7.263-7.263 7.27 7.27 0 0 1 7.263-7.263 7.27 7.27 0 0 1 7.263 7.263 7.27 7.27 0 0 1-7.263 7.263m0-13.023a5.77 5.77 0 0 0-5.76 5.76 5.77 5.77 0 0 0 5.76 5.76 5.77 5.77 0 0 0 5.76-5.76 5.77 5.77 0 0 0-5.76-5.76M12.02 23c-.551 0-1.002-.41-1.002-.962v-.08c0-.55.451-1.002 1.002-1.002s1.002.451 1.002 1.002S12.57 23 12.02 23m7.153-2.825c-.26 0-.51-.1-.711-.29l-.13-.13a.998.998 0 1 1 1.412-1.413l.13.13a.998.998 0 0 1-.701 1.703m-14.306 0c-.26 0-.51-.1-.711-.29a1 1 0 0 1 0-1.413l.13-.13a.998.998 0 1 1 1.413 1.412l-.13.13c-.191.19-.452.29-.702.29m17.171-7.153h-.08c-.55 0-1.002-.451-1.002-1.002s.451-1.002 1.002-1.002S23 11.47 23 12.02s-.41 1.002-.962 1.002m-19.956 0h-.08C1.45 13.022 1 12.57 1 12.02s.45-1.002 1.002-1.002c.55 0 1.042.451 1.042 1.002s-.411 1.002-.962 1.002m16.96-7.023c-.26 0-.51-.1-.71-.29a1 1 0 0 1 0-1.413l.13-.13a.998.998 0 1 1 1.412 1.412l-.13.13c-.19.19-.44.291-.701.291M4.998 6c-.26 0-.51-.1-.711-.29l-.13-.14a.998.998 0 1 1 1.412-1.413l.13.13a1 1 0 0 1 0 1.413c-.19.2-.45.3-.7.3m7.023-2.955c-.551 0-1.002-.411-1.002-.962v-.08C11.018 1.45 11.47 1 12.02 1s1.002.45 1.002 1.002c0 .55-.451 1.042-1.002 1.042"></path></svg>