<svg xmlns:xlink="http://www.w3.org/1999/xlink" xmlns="http://www.w3.org/2000/svg" width="24" height="24" fill="none" class="MuiSvgIcon-root MuiSvgIcon-fontSizeMedium mui-lnffrt" focusable="false" aria-hidden="true" viewBox="0 0 24 24"><path fill="#171D26" fill-rule="evenodd" d="M14.414 16.226H9.588a.69.69 0 0 1-.686-.692.69.69 0 0 1 .686-.693h4.826a.69.69 0 0 1 .686.693.69.69 0 0 1-.686.692m4.834-8.266L14.147 3.77a3.38 3.38 0 0 0-4.294 0l-5.1 4.19A3.41 3.41 0 0 0 3.5 10.612v6.63C3.5 19.314 5.171 21 7.227 21h9.546c2.055 0 3.727-1.686 3.727-3.758v-6.63c0-1.034-.457-2-1.252-2.652" clip-rule="evenodd"></path></svg>