<svg xmlns:xlink="http://www.w3.org/1999/xlink" xmlns="http://www.w3.org/2000/svg" width="25" height="24" fill="none" class="MuiSvgIcon-root MuiSvgIcon-fontSizeMedium mui-lnffrt" focusable="false" aria-hidden="true" viewBox="0 0 24 24"><path fill="#000000" fill-rule="evenodd" d="M5.869 12.828a7 7 0 0 1-.05-.828c0-3.866 3.216-7 7.181-7a7.27 7.27 0 0 1 4.301 1.394c.928-.224 1.783-.333 2.496-.292.768.043 1.572.277 1.977.96.364.617.24 1.326-.033 1.937-.28.627-.776 1.296-1.41 1.965q-.095.104-.2.208.05.408.05.828c0 3.866-3.215 7-7.18 7A7.27 7.27 0 0 1 8.7 17.606l-.285.066c-.911.199-1.753.283-2.45.206-.68-.075-1.373-.324-1.738-.94-.405-.683-.21-1.478.135-2.15.32-.622.843-1.288 1.507-1.96m12.654-5.302c.516.605.93 1.296 1.215 2.047.347-.418.59-.794.734-1.112.2-.45.145-.653.103-.724-.048-.08-.236-.253-.859-.288a6 6 0 0 0-1.193.077m.122 3.183c-.6-2.498-2.9-4.36-5.645-4.36-3.2 0-5.796 2.53-5.796 5.651 0 1.624.703 3.088 1.828 4.119 1.497-.436 3.273-1.187 5.097-2.214s3.38-2.15 4.516-3.196m-8.187 6.37c.768.366 1.63.571 2.542.571 3.065 0 5.575-2.318 5.783-5.254-1.11.911-2.458 1.832-3.961 2.678-1.505.846-2.998 1.525-4.364 2.006m-2.98-.605a7 7 0 0 1-1.215-2.047 5.5 5.5 0 0 0-.664.967c-.279.543-.22.788-.173.869.042.071.195.22.695.274.354.04.81.021 1.356-.063" clip-rule="evenodd" fill-opacity="0.4"></path></svg>