<svg xmlns:xlink="http://www.w3.org/1999/xlink" xmlns="http://www.w3.org/2000/svg" width="24" height="24" fill="none" class="MuiSvgIcon-root MuiSvgIcon-fontSizeMedium mui-lnffrt" focusable="false" aria-hidden="true" viewBox="0 0 24 24"><path fill="#000000" d="M15.917 11.843c0-.366.31-.662.692-.662h.003c.382 0 .692.296.692.662s-.31.662-.692.662h-.003c-.382 0-.692-.296-.692-.662" fill-opacity="0.4"></path><path fill="#000000" fill-rule="evenodd" d="M21 14.142V9.02C21 6.246 18.65 4 15.75 4H8.248C5.35 4 3 6.247 3 9.02v5.96C3 17.753 5.35 20 8.248 20h7.503c2.9 0 5.249-2.247 5.249-5.02zM4.385 9.02c0-2.041 1.73-3.696 3.863-3.696h7.503c2.125 0 3.85 1.64 3.864 3.67h-3.326c-1.395 0-2.524 1.081-2.524 2.414v.966c0 1.333 1.129 2.414 2.524 2.414h3.326v.192c0 2.041-1.73 3.696-3.864 3.696H8.248c-2.134 0-3.863-1.655-3.863-3.696zm15.23 1.299v3.145H16.29c-.63 0-1.14-.488-1.14-1.09v-.966c0-.602.51-1.09 1.14-1.09z" clip-rule="evenodd" fill-opacity="0.4"></path></svg>