<svg xmlns:xlink="http://www.w3.org/1999/xlink" xmlns="http://www.w3.org/2000/svg" width="25" height="24" fill="none" class="MuiSvgIcon-root MuiSvgIcon-fontSizeMedium mui-lnffrt" focusable="false" aria-hidden="true" viewBox="0 0 24 24"><path fill="#000000" d="M8.313 2.47a.75.75 0 0 0-1.061 1.06l.1.1H7a4.2 4.2 0 0 0-4.2 4.201.75.75 0 1 0 1.5 0 2.7 2.7 0 0 1 2.7-2.7h.352l-.099.099a.75.75 0 0 0 1.06 1.06l1.381-1.379a.75.75 0 0 0 0-1.06zM17.249 17.71a.75.75 0 0 1 0 1.06l-.1.1h.35a2.7 2.7 0 0 0 2.7-2.7.75.75 0 0 1 1.5 0 4.2 4.2 0 0 1-4.2 4.2h-.35l.1.1a.75.75 0 0 1-1.06 1.061l-1.381-1.38a.75.75 0 0 1 0-1.06l1.38-1.381a.75.75 0 0 1 1.06 0" fill-opacity="0.4"></path><path fill="#000000" fill-rule="evenodd" d="M8.979 8.726a5.57 5.57 0 0 0 1.081 11.031 5.57 5.57 0 0 0 5.463-4.484 5.57 5.57 0 0 0-1.082-11.03A5.57 5.57 0 0 0 8.98 8.725m-.085 1.565a4.07 4.07 0 0 0 1.166 7.966 4.07 4.07 0 0 0 3.898-2.9 5.57 5.57 0 0 1-5.065-5.066m1.492-.157a4.07 4.07 0 0 0 3.73 3.732 4.07 4.07 0 0 0-3.73-3.732m5.222 3.575a5.57 5.57 0 0 0-5.065-5.067A4.07 4.07 0 0 1 18.51 9.81a4.07 4.07 0 0 1-2.9 3.899" clip-rule="evenodd" fill-opacity="0.4"></path></svg>