<svg width="400" height="150" viewBox="0 0 400 150" xmlns="http://www.w3.org/2000/svg">
  <defs>
    <linearGradient id="primaryGrad" x1="0%" y1="0%" x2="100%" y2="0%">
      <stop offset="0%" style="stop-color:#a855f7;stop-opacity:1" />
      <stop offset="100%" style="stop-color:#7e22ce;stop-opacity:1" />
    </linearGradient>
    <linearGradient id="chartGrad" x1="0%" y1="100%" x2="100%" y2="0%">
      <stop offset="0%" style="stop-color:#c084fc;stop-opacity:0.9" />
      <stop offset="100%" style="stop-color:#9333ea;stop-opacity:1" />
    </linearGradient>
    <linearGradient id="secondaryGrad" x1="0%" y1="0%" x2="100%" y2="0%">
      <stop offset="0%" style="stop-color:#9ca3af;stop-opacity:1" />
      <stop offset="100%" style="stop-color:#6b7280;stop-opacity:1" />
    </linearGradient>
  </defs>

  <g id="fullLogo">
    <g transform="translate(10, 20)">
      <rect x="0" y="0" width="35" height="35" fill="none" stroke="#e5e7eb" stroke-width="0.5" opacity="0.5"/>
      <line x1="0" y1="8.75" x2="35" y2="8.75" stroke="#e5e7eb" stroke-width="0.3"/>
      <line x1="0" y1="17.5" x2="35" y2="17.5" stroke="#e5e7eb" stroke-width="0.3"/>
      <line x1="0" y1="26.25" x2="35" y2="26.25" stroke="#e5e7eb" stroke-width="0.3"/>
      <line x1="8.75" y1="0" x2="8.75" y2="35" stroke="#e5e7eb" stroke-width="0.3"/>
      <line x1="17.5" y1="0" x2="17.5" y2="35" stroke="#e5e7eb" stroke-width="0.3"/>
      <line x1="26.25" y1="0" x2="26.25" y2="35" stroke="#e5e7eb" stroke-width="0.3"/>
      <polyline points="3,28 10,22 17,25 24,18 31,15" stroke="url(#chartGrad)" stroke-width="2" fill="none" stroke-linecap="round" stroke-linejoin="round"/>
      <circle cx="3" cy="28" r="1.5" fill="url(#chartGrad)"/>
      <circle cx="10" cy="22" r="1.5" fill="url(#chartGrad)"/>
      <circle cx="17" cy="25" r="1.5" fill="url(#chartGrad)"/>
      <circle cx="24" cy="18" r="1.5" fill="url(#chartGrad)"/>
      <circle cx="31" cy="15" r="1.5" fill="url(#chartGrad)"/>
    </g>
    <text x="60" y="38" font-family="Inter, sans-serif" font-size="24" font-weight="600" fill="url(#primaryGrad)" letter-spacing="-0.025em">MA</text>
    <text x="105" y="38" font-family="Inter, sans-serif" font-size="24" font-weight="400" fill="url(#secondaryGrad)" letter-spacing="-0.025em">Coins</text>
    <text x="60" y="52" font-family="Inter, sans-serif" font-size="11" font-weight="400" fill="#9ca3af" letter-spacing="0.05em">TRADING PLATFORM</text>
  </g>
</svg>